<?xml version="1.0" encoding="utf-8"?>
<!-- Generator: Adobe Illustrator 16.0.0, SVG Export Plug-In . SVG Version: 6.00 Build 0)  -->
<!DOCTYPE svg PUBLIC "-//W3C//DTD SVG 1.1//EN" "http://www.w3.org/Graphics/SVG/1.1/DTD/svg11.dtd">
<svg version="1.1" xmlns="http://www.w3.org/2000/svg" xmlns:xlink="http://www.w3.org/1999/xlink" x="0px" y="0px"
	 width="216.667px" height="141.372px" viewBox="0 0 216.667 141.372" enable-background="new 0 0 216.667 141.372"
	 xml:space="preserve">
	<g id="Layer_1">
		<g>
			<polygon fill="#00483C" points="18.778,66.77 19.778,65.77 19.778,41.562 32.835,41.562 33.835,40.562 33.835,30.703 
				32.835,29.703 19.778,29.703 19.778,18.291 36.715,18.291 37.715,17.291 37.715,7.436 36.715,6.436 7.629,6.436 6.629,7.436 
				6.629,65.77 7.629,66.77 		"/>
			<path fill="#00483C" d="M59.823,67.578c12.705,0,19.42-7.107,19.42-20.553V26.18c0-13.445-6.715-20.553-19.42-20.553
				c-12.706,0-19.422,7.107-19.422,20.553v20.846C40.401,60.471,47.117,67.578,59.823,67.578z M66.093,48.479
				c0,6.009-2.506,7.24-6.27,7.24c-3.765,0-6.272-1.231-6.272-7.24V24.725c0-6.01,2.508-7.241,6.272-7.241
				c3.764,0,6.27,1.231,6.27,7.241V48.479z"/>
			<path fill="#00483C" d="M122.593,24.887c0-11.898-7.386-18.451-20.797-18.451H85.638l-1,1V65.77l1,1h11.15l1-1V43.016h3.661
				l9.44,23.132l0.926,0.622h11.957l0.921-1.389L114.1,40.292C119.736,37.762,122.593,32.584,122.593,24.887z M109.444,24.725
				c0,4.764-2.264,7.079-6.92,7.079h-4.736V17.646h4.736C107.181,17.646,109.444,19.962,109.444,24.725z"/>
			<polygon fill="#00483C" points="44.229,75.109 43.263,75.854 34.049,110.792 24.834,75.854 23.867,75.109 8.275,75.109 
				7.275,76.109 7.275,134.445 8.275,135.445 17.808,135.445 18.808,134.445 18.808,95.778 28.88,134.696 29.848,135.445 
				38.251,135.445 39.219,134.696 49.289,95.78 49.289,134.445 50.289,135.445 59.823,135.445 60.823,134.445 60.823,76.109 
				59.823,75.109 		"/>
			<path fill="#00483C" d="M93.635,75.109H79.333l-0.971,0.76l-14.461,58.336l0.971,1.24h10.745l0.969-0.751l2.958-11.53h13.859
				l2.65,11.506l0.975,0.775h10.664l0.973-1.234L94.607,75.875L93.635,75.109z M90.602,111.308h-8.554l4.309-18.502L90.602,111.308z"
				/>
			<polygon fill="#00483C" points="112.156,75.109 111.156,76.109 111.156,134.445 112.156,135.445 123.306,135.445 124.306,134.445 
				124.306,76.109 123.306,75.109 		"/>
			<polygon fill="#00483C" points="159.661,75.109 158.661,76.109 158.661,106.377 144.897,75.7 143.985,75.109 131.786,75.109 
				130.786,76.109 130.786,134.445 131.786,135.445 141.969,135.445 142.969,134.445 142.969,101.072 158.267,134.857 
				159.178,135.445 169.841,135.445 170.841,134.445 170.841,76.109 169.841,75.109 		"/>
			<polygon fill="#00483C" points="209.763,123.588 190.562,123.588 190.562,110.238 204.351,110.238 205.351,109.238 205.351,99.38 
				204.351,98.38 190.562,98.38 190.562,86.968 208.954,86.968 209.954,85.968 209.954,76.109 208.954,75.109 178.413,75.109 
				177.413,76.109 177.413,134.445 178.413,135.445 209.763,135.445 210.763,134.445 210.763,124.588 		"/>
			<polygon fill="#00483C" points="139.213,67.452 140.183,66.696 155.055,7.68 154.085,6.436 146.658,6.436 145.688,7.191 
				130.816,66.208 131.786,67.452 		"/>
		</g>
	</g>
</svg>
