<?xml version="1.0" encoding="utf-8"?>
<!-- Generator: Adobe Illustrator 16.0.0, SVG Export Plug-In . SVG Version: 6.00 Build 0)  -->
<!DOCTYPE svg PUBLIC "-//W3C//DTD SVG 1.1//EN" "http://www.w3.org/Graphics/SVG/1.1/DTD/svg11.dtd">
<svg version="1.1" xmlns="http://www.w3.org/2000/svg" xmlns:xlink="http://www.w3.org/1999/xlink" x="0px" y="0px" width="23px"
	 height="23px" viewBox="0 0 23 23" enable-background="new 0 0 23 23" xml:space="preserve">
<g id="Layer_1">
	<g>
		<defs>
			<rect id="SVGID_51_" width="23" height="23"/>
		</defs>
		<clipPath id="SVGID_2_">
			<use xlink:href="#SVGID_51_"  overflow="visible"/>
		</clipPath>
		<path clip-path="url(#SVGID_2_)" fill="#008745" d="M12.286,23H1.271C0.568,23,0,22.432,0,21.729V1.271C0,0.568,0.568,0,1.271,0
			h20.462C22.432,0,23,0.568,23,1.271v20.457C23,22.432,22.432,23,21.733,23H15.87v-8.907h2.989l0.449-3.471H15.87V8.407
			c0-1.005,0.279-1.691,1.72-1.691h1.839V3.613c-0.318-0.045-1.409-0.139-2.68-0.139c-2.65,0-4.463,1.617-4.463,4.589v2.559H9.289
			v3.471h2.997V23z"/>
	</g>
</g>
<g id="Layer_2">
</g>
</svg>
